<svg width="256" height="276" viewBox="0 0 256 276" fill="none" xmlns="http://www.w3.org/2000/svg">
<path d="M0 2.46763L128 158.874L256 2.46763V118.392C256 205.112 198.692 275.412 128 275.412C57.3075 275.412 0 205.112 0 118.392L0 2.46763Z" fill="#B2EF51"/>
<path d="M0 2.46763L128 158.874L256 2.46763V118.392C256 205.112 198.692 275.412 128 275.412C57.3075 275.412 0 205.112 0 118.392L0 2.46763Z" fill="#B2EF51"/>
<path d="M0 1.85424L128 157.647L256 1.85424V59.5099C256 146.23 198.692 216.53 128 216.53C57.3075 216.53 0 146.23 0 59.5099L0 1.85424Z" fill="#5AC38A"/>
<path d="M0 1.85424L128 157.647L256 1.85424V59.5099C256 146.23 198.692 216.53 128 216.53C57.3075 216.53 0 146.23 0 59.5099L0 1.85424Z" fill="#5AC38A"/>
<path d="M128 157.647C198.692 157.647 256 87.3472 256 0.627548C256 0.627548 207 -2.43924 166.5 45.4027C126 93.2447 128 157.647 128 157.647Z" fill="#068A91"/>
<path d="M-7.06365e-10 0.62752C-3.09077e-06 87.3471 57.3075 157.647 128 157.647C128 157.647 130.5 97.5381 91.5 47.8561C52.5 -1.82592 -7.06365e-10 0.62752 -7.06365e-10 0.62752Z" fill="#068A91"/>
</svg>
