<svg width="225" height="256" viewBox="0 0 225 256" fill="none" xmlns="http://www.w3.org/2000/svg">
<path d="M222.5 0L95 128L222.5 256H128C57.3075 256 0 198.692 0 128C0 57.3075 57.3075 0 128 0H222.5Z" fill="#B2EF51"/>
<path d="M222.5 0L95 128L222.5 256H128C57.3075 256 0 198.692 0 128C0 57.3075 57.3075 0 128 0H222.5Z" fill="#B2EF51"/>
<path d="M223 0L96 128L223 256H176C105.308 256 48 198.692 48 128C48 57.3075 105.308 0 176 0H223Z" fill="#5AC38A"/>
<path d="M223 0L96 128L223 256H176C105.308 256 48 198.692 48 128C48 57.3075 105.308 0 176 0H223Z" fill="#5AC38A"/>
<path d="M96 128C96 198.692 153.308 256 224 256C224 256 226.5 207 187.5 166.5C148.5 126 96 128 96 128Z" fill="#068A91"/>
<path d="M224 5.72134e-06C153.308 2.63127e-06 96 57.3075 96 128C96 128 145 130.5 185.5 91.5C226 52.5 224 5.72134e-06 224 5.72134e-06Z" fill="#068A91"/>
</svg>
