<svg width="821" height="292" viewBox="0 0 821 292" fill="none" xmlns="http://www.w3.org/2000/svg">
<path d="M0 2.46762L128 158.874L256 2.46762V118.392C256 205.112 198.692 275.412 128 275.412C57.3075 275.412 0 205.112 0 118.392L0 2.46762Z" fill="#B2EF51"/>
<path d="M0 2.46762L128 158.874L256 2.46762V118.392C256 205.112 198.692 275.412 128 275.412C57.3075 275.412 0 205.112 0 118.392L0 2.46762Z" fill="#B2EF51"/>
<path d="M0 1.85423L128 157.647L256 1.85423V59.5099C256 146.23 198.692 216.53 128 216.53C57.3075 216.53 0 146.23 0 59.5099L0 1.85423Z" fill="#5AC38A"/>
<path d="M0 1.85423L128 157.647L256 1.85423V59.5099C256 146.23 198.692 216.53 128 216.53C57.3075 216.53 0 146.23 0 59.5099L0 1.85423Z" fill="#5AC38A"/>
<path d="M128 157.647C198.692 157.647 256 87.3472 256 0.627548C256 0.627548 207 -2.43924 166.5 45.4027C126 93.2447 128 157.647 128 157.647Z" fill="#068A91"/>
<path d="M-7.06365e-10 0.62752C-3.09077e-06 87.3471 57.3075 157.647 128 157.647C128 157.647 130.5 97.5381 91.5 47.8561C52.5 -1.82592 -7.06365e-10 0.62752 -7.06365e-10 0.62752Z" fill="#068A91"/>
<path d="M414.391 85.7891C400.719 85.7891 390.133 90.9453 382.633 101.258C375.133 111.492 371.383 125.789 371.383 144.148C371.383 182.352 385.719 201.453 414.391 201.453C426.422 201.453 440.992 198.445 458.102 192.43V222.898C444.039 228.758 428.336 231.688 410.992 231.688C386.07 231.688 367.008 224.148 353.805 209.07C340.602 193.914 334 172.195 334 143.914C334 126.102 337.242 110.516 343.727 97.1562C350.211 83.7188 359.508 73.4453 371.617 66.3359C383.805 59.1484 398.062 55.5547 414.391 55.5547C431.031 55.5547 447.75 59.5781 464.547 67.625L452.828 97.1562C446.422 94.1094 439.977 91.4531 433.492 89.1875C427.008 86.9219 420.641 85.7891 414.391 85.7891Z" fill="#2A3D50"/>
<path d="M490.328 64.4609C490.328 52.8203 496.812 47 509.781 47C522.75 47 529.234 52.8203 529.234 64.4609C529.234 70.0078 527.594 74.3438 524.312 77.4688C521.109 80.5156 516.266 82.0391 509.781 82.0391C496.812 82.0391 490.328 76.1797 490.328 64.4609ZM527.594 229.344H491.852V98.3281H527.594V229.344Z" fill="#2A3D50"/>
<path d="M596.383 229.344L546.461 98.3281H583.844L609.156 172.977C611.969 182.43 613.727 191.375 614.43 199.812H615.133C615.523 192.312 617.281 183.367 620.406 172.977L645.602 98.3281H682.984L633.062 229.344H596.383Z" fill="#2A3D50"/>
<path d="M756.109 121.297C748.531 121.297 742.594 123.719 738.297 128.562C734 133.328 731.539 140.125 730.914 148.953H781.07C780.914 140.125 778.609 133.328 774.156 128.562C769.703 123.719 763.688 121.297 756.109 121.297ZM761.148 231.688C740.055 231.688 723.57 225.867 711.695 214.227C699.82 202.586 693.883 186.102 693.883 164.773C693.883 142.82 699.352 125.867 710.289 113.914C721.305 101.883 736.5 95.8672 755.875 95.8672C774.391 95.8672 788.805 101.141 799.117 111.688C809.43 122.234 814.586 136.805 814.586 155.398V172.742H730.094C730.484 182.898 733.492 190.828 739.117 196.531C744.742 202.234 752.633 205.086 762.789 205.086C770.68 205.086 778.141 204.266 785.172 202.625C792.203 200.984 799.547 198.367 807.203 194.773V222.43C800.953 225.555 794.273 227.859 787.164 229.344C780.055 230.906 771.383 231.688 761.148 231.688Z" fill="#2A3D50"/>
</svg>
