<svg width="970" height="397" viewBox="0 0 970 397" fill="none" xmlns="http://www.w3.org/2000/svg">
<path d="M0 62.4676L128 218.874L256 62.4676V178.392C256 265.112 198.692 335.412 128 335.412C57.3075 335.412 0 265.112 0 178.392L0 62.4676Z" fill="#B2EF51"/>
<path d="M0 62.4676L128 218.874L256 62.4676V178.392C256 265.112 198.692 335.412 128 335.412C57.3075 335.412 0 265.112 0 178.392L0 62.4676Z" fill="#B2EF51"/>
<path d="M0 61.8542L128 217.647L256 61.8542V119.51C256 206.23 198.692 276.53 128 276.53C57.3075 276.53 0 206.23 0 119.51L0 61.8542Z" fill="#5AC38A"/>
<path d="M0 61.8542L128 217.647L256 61.8542V119.51C256 206.23 198.692 276.53 128 276.53C57.3075 276.53 0 206.23 0 119.51L0 61.8542Z" fill="#5AC38A"/>
<path d="M128 217.647C198.692 217.647 256 147.347 256 60.6275C256 60.6275 207 57.5608 166.5 105.403C126 153.245 128 217.647 128 217.647Z" fill="#068A91"/>
<path d="M-7.06365e-10 60.6275C-3.09077e-06 147.347 57.3075 217.647 128 217.647C128 217.647 130.5 157.538 91.5 107.856C52.5 58.1741 -7.06365e-10 60.6275 -7.06365e-10 60.6275Z" fill="#068A91"/>
<path d="M421.962 299.396C403.349 299.396 386.713 295.208 372.055 286.832C357.63 278.223 346.229 266.706 337.853 252.281C329.71 237.623 325.638 221.104 325.638 202.723C325.638 183.877 329.71 167.125 337.853 152.467C345.996 137.809 357.164 126.408 371.357 118.265C385.55 109.889 401.836 105.701 420.217 105.701C447.672 105.701 470.473 116.171 488.621 137.111C491.878 140.834 493.042 144.673 492.111 148.628C491.18 152.583 488.621 156.073 484.433 159.098C481.176 161.425 477.569 162.239 473.614 161.541C469.659 160.61 466.052 158.516 462.795 155.259C451.394 143.16 437.202 137.111 420.217 137.111C402.302 137.111 387.76 143.16 376.592 155.259C365.424 167.125 359.84 182.946 359.84 202.723C359.84 215.287 362.399 226.455 367.518 236.227C372.869 245.999 380.198 253.793 389.505 259.61C398.812 265.194 409.631 267.986 421.962 267.986C437.783 267.986 450.58 263.914 460.352 255.771C464.075 252.746 467.914 251.118 471.869 250.885C475.824 250.42 479.314 251.467 482.339 254.026C486.294 257.283 488.505 261.006 488.97 265.194C489.435 269.149 488.039 272.756 484.782 276.013C468.03 291.602 447.09 299.396 421.962 299.396ZM548.853 298C543.735 298 539.43 296.371 535.94 293.114C532.683 289.624 531.054 285.32 531.054 280.201V124.896C531.054 119.545 532.683 115.24 535.94 111.983C539.43 108.726 543.735 107.097 548.853 107.097C554.205 107.097 558.509 108.726 561.766 111.983C565.024 115.24 566.652 119.545 566.652 124.896V280.201C566.652 285.32 565.024 289.624 561.766 293.114C558.509 296.371 554.205 298 548.853 298ZM548.853 76.036C542.571 76.036 537.104 73.8257 532.45 69.405C528.03 64.7517 525.819 59.284 525.819 53.002C525.819 46.72 528.03 41.3687 532.45 36.948C537.104 32.2947 542.571 29.968 548.853 29.968C555.135 29.968 560.487 32.2947 564.907 36.948C569.561 41.3687 571.887 46.72 571.887 53.002C571.887 59.284 569.561 64.7517 564.907 69.405C560.487 73.8257 555.135 76.036 548.853 76.036ZM679.993 297.651C672.78 297.651 667.196 293.812 663.241 286.134L589.253 130.131C587.392 126.176 587.159 122.337 588.555 118.614C590.184 114.659 593.208 111.634 597.629 109.54C601.584 107.446 605.54 107.097 609.495 108.493C613.683 109.889 616.824 112.565 618.918 116.52L679.644 247.395L739.672 116.52C741.766 112.565 744.907 109.889 749.095 108.493C753.516 107.097 757.936 107.446 762.357 109.54C766.545 111.401 769.337 114.31 770.733 118.265C772.129 122.22 771.896 126.176 770.035 130.131L696.047 286.134C692.557 293.812 687.206 297.651 679.993 297.651ZM872.055 299.396C852.743 299.396 835.526 295.324 820.403 287.181C805.512 278.805 793.762 267.404 785.154 252.979C776.778 238.321 772.59 221.569 772.59 202.723C772.59 183.644 776.545 166.892 784.456 152.467C792.599 137.809 803.767 126.408 817.96 118.265C832.152 109.889 848.439 105.701 866.82 105.701C884.968 105.701 900.556 109.773 913.586 117.916C926.615 125.827 936.503 136.878 943.251 151.071C950.231 165.031 953.721 181.201 953.721 199.582C953.721 204.003 952.208 207.725 949.184 210.75C946.159 213.542 942.32 214.938 937.667 214.938H805.047C807.606 230.992 814.935 244.138 827.034 254.375C839.365 264.38 854.372 269.382 872.055 269.382C879.267 269.382 886.596 268.102 894.042 265.543C901.72 262.751 907.885 259.61 912.539 256.12C916.029 253.561 919.751 252.281 923.707 252.281C927.895 252.048 931.501 253.212 934.526 255.771C938.481 259.261 940.575 263.1 940.808 267.288C941.04 271.476 939.179 275.082 935.224 278.107C927.313 284.389 917.425 289.508 905.559 293.463C893.925 297.418 882.757 299.396 872.055 299.396ZM866.82 135.715C849.602 135.715 835.759 140.485 825.289 150.024C814.819 159.563 808.188 171.895 805.396 187.018H921.613C919.519 172.127 913.818 159.912 904.512 150.373C895.205 140.601 882.641 135.715 866.82 135.715Z" fill="#191919"/>
</svg>
