<svg width="1283" height="398" viewBox="0 0 1283 398" fill="none" xmlns="http://www.w3.org/2000/svg">
<path d="M272.944 142L116.538 270L272.944 398H157.02C70.3001 398 0 340.692 0 270C0 199.308 70.3001 142 157.02 142H272.944Z" fill="#B2EF51"/>
<path d="M272.944 142L116.538 270L272.944 398H157.02C70.3001 398 0 340.692 0 270C0 199.308 70.3001 142 157.02 142H272.944Z" fill="#B2EF51"/>
<path d="M273.558 142L117.765 270L273.558 398H215.902C129.183 398 58.8824 340.692 58.8824 270C58.8824 199.308 129.183 142 215.902 142H273.558Z" fill="#5AC38A"/>
<path d="M273.558 142L117.765 270L273.558 398H215.902C129.183 398 58.8824 340.692 58.8824 270C58.8824 199.308 129.183 142 215.902 142H273.558Z" fill="#5AC38A"/>
<path d="M117.765 270C117.765 340.692 188.065 398 274.785 398C274.785 398 277.851 349 230.009 308.5C182.167 268 117.765 270 117.765 270Z" fill="#068A91"/>
<path d="M274.785 142C188.065 142 117.765 199.308 117.765 270C117.765 270 177.874 272.5 227.556 233.5C277.238 194.5 274.785 142 274.785 142Z" fill="#068A91"/>
<path d="M537.107 330.515L543.197 375.527C519.46 385.842 489.634 391 453.716 391C411.24 391 381.257 381.935 363.767 363.805C346.589 345.362 338 313.947 338 269.56C338 224.86 346.745 193.445 364.235 175.315C381.725 156.873 411.865 147.651 454.653 147.651C489.634 147.651 518.055 152.497 539.918 162.187L532.422 205.324C498.691 204.698 476.672 204.386 466.365 204.386C445.127 204.386 430.448 208.918 422.328 217.983C414.519 227.048 410.615 244.241 410.615 269.56C410.615 294.88 414.519 312.072 422.328 321.137C430.448 330.202 445.127 334.734 466.365 334.734C493.538 334.734 517.118 333.328 537.107 330.515Z" fill="#191919"/>
<path d="M605.898 52H636.818C650.248 52 656.963 58.7206 656.963 72.1618V97.4813C656.963 110.923 650.248 117.643 636.818 117.643H605.898C592.468 117.643 585.753 110.923 585.753 97.4813V72.1618C585.753 58.7206 592.468 52 605.898 52ZM656.026 385.373H587.158V154.216H656.026V385.373Z" fill="#191919"/>
<path d="M946.191 154.216L870.296 368.963C866.548 379.903 859.052 385.373 847.809 385.373H787.842C776.599 385.373 769.103 379.903 765.355 368.963L689.46 154.216H763.013L804.708 299.1C808.143 311.916 811.423 325.669 814.546 340.361H820.636L831.412 299.1L873.107 154.216H946.191Z" fill="#191919"/>
<path d="M1121.73 293.004H1038.34C1040.52 309.884 1045.52 321.293 1053.33 327.232C1061.45 332.859 1074.72 335.672 1093.15 335.672C1117.82 335.672 1146.56 333.953 1179.35 330.515L1185.91 373.651C1161.86 385.217 1128.29 391 1085.18 391C1041.77 391 1010.85 381.622 992.425 362.867C973.997 344.112 964.784 313.166 964.784 270.029C964.784 224.704 973.685 192.976 991.488 174.846C1009.6 156.716 1039.9 147.651 1082.37 147.651C1120.79 147.651 1148.59 154.372 1165.76 167.813C1182.94 180.942 1191.69 201.104 1192 228.299C1192 249.867 1186.38 266.122 1175.13 277.062C1164.2 287.69 1146.4 293.004 1121.73 293.004ZM1036.93 251.274H1102.52C1110.95 251.274 1116.57 249.242 1119.38 245.178C1122.51 241.115 1124.07 235.176 1124.07 227.361C1124.07 216.42 1121.26 208.918 1115.64 204.855C1110.01 200.479 1099.71 198.29 1084.72 198.29C1066.91 198.29 1054.73 201.885 1048.17 209.075C1041.62 215.952 1037.87 230.018 1036.93 251.274Z" fill="#191919"/>
</svg>
